<?xml version="1.0" standalone="no"?>
<!DOCTYPE svg PUBLIC "-//W3C//DTD SVG 20010904//EN"
 "http://www.w3.org/TR/2001/REC-SVG-20010904/DTD/svg10.dtd">
<svg version="1.0" xmlns="http://www.w3.org/2000/svg"
 width="1024.000000pt" height="1024.000000pt" viewBox="0 0 1024.000000 1024.000000"
 preserveAspectRatio="xMidYMid meet">

<g transform="translate(0.000000,1024.000000) scale(0.100000,-0.100000)"
fill="#000000" stroke="none">
<path d="M4965 7890 c-800 -37 -1523 -349 -2220 -960 -398 -349 -585 -575
-740 -895 -186 -381 -255 -705 -255 -1187 l0 -170 -31 7 c-16 4 -57 4 -90 0
l-59 -7 0 -46 c0 -26 7 -85 16 -132 32 -182 33 -172 -25 -256 -84 -120 -144
-270 -172 -427 -19 -116 -7 -352 25 -477 126 -486 561 -875 1080 -965 192 -33
458 -14 628 44 270 93 516 298 632 529 75 150 106 265 106 404 0 221 -64 380
-230 566 -256 287 -315 365 -382 509 -71 151 -81 208 -82 458 -1 207 1 226 26
322 27 103 90 244 147 327 56 80 154 168 237 212 93 49 184 72 354 87 l125 12
3 40 c5 73 -8 80 -150 78 -189 -2 -303 -33 -465 -124 -224 -126 -412 -428
-445 -713 -11 -97 -4 -324 13 -441 29 -193 116 -405 226 -552 22 -28 99 -118
173 -200 210 -233 261 -314 281 -445 24 -155 -6 -312 -94 -483 -54 -106 -197
-252 -312 -319 -177 -103 -317 -145 -515 -153 -202 -8 -362 24 -547 112 -140
66 -228 128 -339 239 -187 187 -278 396 -291 661 -11 242 60 492 169 595 32
30 101 64 176 86 42 12 62 23 61 34 0 8 -15 53 -33 100 -28 72 -37 85 -56 85
-24 0 -33 -11 -50 -57 -20 -57 -68 -20 -94 71 -9 31 -16 72 -16 89 0 32 0 32
50 32 l50 0 0 40 c0 32 5 43 29 61 l29 21 6 147 c11 255 40 516 73 645 84 337
221 619 423 869 58 72 181 197 233 237 39 31 36 11 -24 -121 -106 -239 -174
-489 -198 -729 -6 -58 -14 -124 -17 -147 l-5 -43 83 0 83 0 2 28 c6 87 48 350
69 434 102 408 382 841 719 1111 444 356 1004 562 1620 597 534 30 1027 -72
1505 -310 599 -298 964 -752 1090 -1355 25 -121 41 -502 22 -514 -7 -4 30 -5
81 -3 50 2 94 6 97 9 3 3 5 102 4 221 0 153 -6 251 -18 331 -17 110 -74 358
-95 414 -6 15 -7 27 -2 27 16 0 150 -148 223 -246 171 -231 272 -434 347 -701
66 -234 95 -428 76 -502 -7 -31 -8 -64 -2 -101 4 -30 11 -131 15 -225 l7 -170
70 -1 c135 -3 125 1 125 -41 0 -46 -25 -142 -40 -157 -6 -6 -53 -11 -113 -12
l-102 -1 -7 -49 c-4 -27 -9 -63 -13 -80 -5 -30 -5 -30 71 -54 89 -28 144 -72
205 -162 98 -143 139 -280 139 -459 0 -169 -28 -286 -105 -439 -162 -321 -435
-531 -787 -606 -126 -27 -362 -24 -493 5 -220 50 -383 138 -531 285 -108 109
-156 188 -188 312 -21 80 -20 225 0 317 32 139 97 245 300 488 186 221 240
310 307 502 l32 92 0 290 0 290 -33 95 c-18 52 -61 154 -97 225 -103 207 -209
316 -400 410 -144 72 -238 90 -460 88 -194 -1 -215 -7 -215 -62 0 -28 5 -43
18 -49 9 -5 82 -12 162 -16 235 -10 349 -41 485 -131 143 -95 243 -219 308
-383 57 -141 70 -223 70 -412 -1 -406 -86 -608 -406 -972 -117 -133 -170 -220
-215 -350 -116 -340 24 -729 352 -976 76 -58 249 -149 342 -180 209 -71 469
-85 697 -38 279 57 494 174 699 377 257 256 378 540 378 889 0 103 -5 146 -25
225 -39 157 -123 300 -221 380 l-45 37 21 36 c33 56 78 302 61 331 -5 7 -41
17 -81 22 -40 5 -75 11 -78 14 -2 2 -6 35 -8 72 -22 403 -38 538 -89 728 -152
580 -405 994 -886 1447 -188 177 -268 241 -496 398 -389 269 -901 464 -1397
535 -99 14 -425 36 -486 33 -14 -1 -97 -4 -185 -8z"/>
<path d="M2446 5430 c-70 -11 -124 -41 -200 -111 -74 -68 -120 -161 -142 -289
-52 -305 58 -798 216 -960 71 -73 124 -95 230 -95 107 0 172 27 231 94 114
129 143 301 137 811 l-3 305 -28 57 c-35 72 -110 140 -183 168 -66 24 -175 33
-258 20z m186 -340 c34 -42 39 -83 41 -385 1 -211 -1 -244 -16 -272 -35 -66
-122 -92 -175 -54 -58 41 -67 88 -66 346 1 248 8 353 28 380 32 44 146 35 188
-15z"/>
<path d="M7603 5430 c-118 -24 -229 -113 -266 -216 -37 -99 -47 -568 -17 -779
45 -314 174 -465 398 -465 96 0 158 27 225 99 76 82 111 169 148 377 30 167
34 565 6 664 -68 240 -261 366 -494 320z m153 -331 c31 -25 64 -116 75 -204
13 -106 5 -336 -15 -410 -40 -153 -118 -198 -196 -116 -56 59 -72 114 -78 271
-2 75 0 171 7 215 6 44 13 106 17 137 7 75 38 121 84 128 38 6 84 -3 106 -21z"/>
<path d="M4219 5372 c-199 -52 -323 -212 -364 -468 -6 -38 -4 -42 23 -53 65
-27 107 7 172 136 61 123 123 183 212 208 104 28 199 18 293 -30 41 -21 96
-60 122 -87 54 -54 76 -60 96 -22 29 56 -11 153 -93 228 -104 94 -296 131
-461 88z"/>
<path d="M5739 5278 c-135 -48 -216 -116 -250 -211 -13 -37 -13 -40 10 -58 37
-30 74 -25 105 16 15 19 51 47 79 62 45 23 65 27 142 27 76 0 97 -3 135 -23
113 -60 165 -112 263 -266 42 -65 73 -81 122 -61 58 24 50 47 -96 286 -112
185 -190 238 -359 247 -70 3 -96 0 -151 -19z"/>
<path d="M7247 5166 c-5 -15 -6 -31 -3 -34 8 -8 18 25 14 45 -3 13 -6 10 -11
-11z"/>
<path d="M4626 4169 c-50 -8 -86 -37 -114 -90 -20 -37 -23 -54 -18 -104 21
-232 161 -450 350 -544 175 -88 392 -92 571 -11 185 84 323 271 355 482 19
127 -9 233 -67 256 -30 13 -1008 22 -1077 11z m928 -169 c35 -13 40 -45 21
-121 -35 -134 -108 -240 -196 -284 -65 -33 -172 -48 -309 -43 -100 4 -122 8
-166 31 -89 45 -160 146 -189 269 -22 94 -20 137 8 148 30 12 799 13 831 0z"/>
<path d="M9980 552 c0 -4 21 -28 46 -52 55 -53 55 -40 2 19 -38 41 -48 48 -48
33z"/>
</g>
</svg>
