<?xml version="1.0" standalone="no"?>
<!DOCTYPE svg PUBLIC "-//W3C//DTD SVG 20010904//EN"
 "http://www.w3.org/TR/2001/REC-SVG-20010904/DTD/svg10.dtd">
<svg version="1.0" xmlns="http://www.w3.org/2000/svg"
 width="1024.000000pt" height="1024.000000pt" viewBox="0 0 1024.000000 1024.000000"
 preserveAspectRatio="xMidYMid meet">

<g transform="translate(0.000000,1024.000000) scale(0.100000,-0.100000)"
fill="#000000" stroke="none">
<path d="M4784 8535 c-695 -66 -1296 -270 -1819 -616 -369 -245 -627 -477
-843 -763 -304 -402 -461 -948 -479 -1666 -9 -352 13 -581 82 -850 40 -156 61
-215 117 -323 55 -105 114 -169 194 -208 61 -30 69 -32 148 -27 179 12 320
123 356 281 8 38 6 64 -15 154 -14 59 -32 140 -41 178 -8 39 -21 95 -29 125
-41 165 -50 270 -50 565 0 261 3 309 28 480 30 214 28 242 -24 293 -41 40
-146 68 -312 84 -70 6 -127 15 -127 20 0 15 102 293 139 378 79 183 209 386
348 546 129 147 379 360 588 501 124 83 234 147 242 139 3 -3 -21 -36 -54 -73
-178 -203 -321 -426 -411 -643 -110 -265 -152 -484 -153 -804 -1 -338 43 -569
166 -877 56 -138 108 -235 192 -357 83 -119 95 -148 137 -323 54 -224 163
-505 223 -574 50 -57 102 -69 147 -34 46 36 34 86 -63 252 -65 113 -88 182
-107 332 -17 133 -20 142 -164 445 -148 313 -197 440 -250 650 -42 169 -60
311 -60 480 0 575 268 1118 733 1488 260 206 635 354 1060 418 142 21 566 26
722 9 323 -36 644 -133 905 -273 180 -96 322 -205 481 -368 464 -478 615
-1159 402 -1809 -22 -66 -78 -191 -142 -315 -275 -536 -251 -481 -271 -620
-10 -69 -28 -177 -40 -240 -27 -146 -37 -342 -20 -394 15 -47 51 -64 87 -41
73 49 164 319 184 549 17 208 39 271 158 461 197 313 285 530 342 845 31 167
34 543 6 685 -82 408 -210 682 -470 1005 -47 58 -83 107 -81 109 1 2 21 -7 43
-20 22 -13 77 -46 123 -73 324 -190 683 -538 883 -856 91 -145 268 -561 247
-582 -4 -3 -60 -16 -125 -27 -175 -31 -300 -80 -364 -141 -29 -26 -29 -54 -2
-190 64 -330 65 -751 3 -1081 -8 -46 -32 -145 -51 -219 -42 -157 -47 -246 -19
-329 20 -58 68 -118 120 -151 106 -65 273 -77 372 -27 140 71 251 273 328 592
55 229 76 429 76 725 0 991 -288 1664 -949 2213 -577 481 -1339 795 -2151 887
-154 18 -537 21 -696 5z"/>
<path d="M5963 4946 c-158 -51 -243 -191 -243 -398 0 -160 41 -281 122 -359
55 -53 99 -71 178 -72 55 -2 76 3 132 31 119 58 236 210 254 329 14 95 -50
278 -130 370 -72 82 -220 129 -313 99z m376 -302 c58 -49 66 -147 14 -198 -34
-34 -74 -34 -113 2 -57 50 -60 140 -8 193 36 36 67 37 107 3z"/>
<path d="M4089 4943 c-49 -8 -133 -66 -166 -116 -43 -64 -53 -102 -60 -224 -5
-91 -3 -110 21 -186 32 -103 76 -171 140 -214 126 -86 260 -73 354 33 73 82
97 158 97 310 0 121 0 121 -39 198 -51 101 -114 158 -203 186 -63 19 -88 22
-144 13z m-91 -294 c84 -29 79 -157 -8 -219 -65 -46 -110 -3 -113 107 -2 74 8
97 48 113 28 12 37 12 73 -1z"/>
<path d="M2585 3875 c-183 -29 -311 -98 -360 -194 -44 -88 -42 -163 6 -190 35
-20 65 -10 156 53 107 73 131 84 220 103 158 32 281 14 698 -102 301 -84 366
-93 423 -60 65 39 64 70 -5 146 -45 49 -65 58 -272 116 -516 143 -650 163
-866 128z"/>
<path d="M7350 3874 c-174 -23 -417 -78 -635 -145 -71 -22 -172 -49 -223 -59
-52 -10 -96 -21 -99 -24 -3 -3 -9 -24 -13 -48 -11 -57 7 -91 60 -112 74 -29
165 -17 465 63 295 79 375 94 505 94 82 1 131 -4 171 -16 58 -18 151 -69 188
-104 12 -11 38 -29 57 -39 31 -17 37 -17 62 -4 36 21 72 76 72 112 0 70 -68
167 -148 211 -77 42 -192 68 -317 72 -60 2 -126 1 -145 -1z"/>
<path d="M5404 3765 c-207 -147 -263 -172 -364 -162 -77 8 -129 33 -235 111
-86 63 -129 85 -142 73 -13 -13 50 -118 103 -170 82 -83 160 -119 277 -125
150 -8 252 32 350 137 70 75 111 171 73 171 -8 0 -36 -16 -62 -35z"/>
<path d="M3981 3144 c-266 -178 -442 -186 -926 -41 -302 91 -455 97 -612 23
-157 -75 -251 -214 -222 -330 21 -83 76 -225 110 -284 100 -170 378 -370 654
-471 376 -137 757 -167 1102 -86 278 66 504 187 689 370 108 107 176 197 239
316 25 49 51 91 56 95 16 9 31 -9 94 -111 196 -316 448 -516 810 -641 336
-117 740 -122 1125 -14 297 84 533 213 711 389 164 163 221 269 222 416 1 66
-4 90 -25 135 -78 168 -302 263 -558 237 -41 -4 -156 -30 -255 -57 -223 -62
-311 -79 -446 -87 -183 -10 -352 31 -554 135 l-98 50 -22 -24 c-40 -44 -49
-77 -30 -117 29 -63 136 -154 230 -198 114 -54 192 -70 367 -76 177 -7 282 9
503 72 280 81 392 93 508 54 106 -35 157 -84 157 -151 0 -51 -59 -145 -134
-215 -226 -211 -559 -347 -961 -393 -216 -24 -499 5 -699 72 -314 105 -535
288 -671 556 -42 84 -31 81 -206 56 -100 -14 -118 -14 -186 0 -41 9 -79 16
-84 16 -5 0 -22 -30 -39 -66 -112 -249 -373 -466 -681 -568 -355 -118 -819
-76 -1207 109 -284 136 -425 272 -474 458 -11 41 -10 52 3 75 33 60 129 94
259 95 83 0 151 -15 325 -68 353 -109 499 -125 706 -75 157 38 305 134 365
236 23 39 24 48 14 78 -13 41 -47 86 -63 86 -7 0 -50 -25 -96 -56z"/>
<path d="M10020 505 c24 -25 49 -45 54 -45 6 0 -10 20 -34 45 -24 25 -49 45
-54 45 -6 0 10 -20 34 -45z"/>
<path d="M9946 522 c-3 -5 17 -30 43 -56 33 -32 51 -44 56 -36 4 7 -10 29 -36
56 -44 45 -54 50 -63 36z"/>
<path d="M9891 430 c-48 -35 -92 -113 -74 -131 17 -17 59 -2 102 36 41 37 76
99 66 115 -12 19 -52 10 -94 -20z"/>
<path d="M9746 322 c-3 -5 17 -30 43 -56 33 -32 51 -44 56 -36 4 7 -10 29 -36
56 -44 45 -54 50 -63 36z"/>
<path d="M9720 278 c0 -13 -7 -36 -15 -52 -28 -53 -12 -71 38 -44 12 6 35 14
51 17 l28 6 -47 48 c-26 26 -49 47 -51 47 -2 0 -4 -10 -4 -22z"/>
</g>
</svg>
