<?xml version="1.0" standalone="no"?>
<!DOCTYPE svg PUBLIC "-//W3C//DTD SVG 20010904//EN"
 "http://www.w3.org/TR/2001/REC-SVG-20010904/DTD/svg10.dtd">
<svg version="1.0" xmlns="http://www.w3.org/2000/svg"
 width="1024.000000pt" height="1024.000000pt" viewBox="0 0 1024.000000 1024.000000"
 preserveAspectRatio="xMidYMid meet">

<g transform="translate(0.000000,1024.000000) scale(0.100000,-0.100000)"
fill="#000000" stroke="none">
<path d="M1884 10147 c-438 -456 -723 -1077 -825 -1797 -30 -207 -33 -589 -6
-688 26 -97 31 -92 -81 -91 -349 0 -651 -131 -891 -388 l-81 -86 0 -313 c0
-173 2 -314 4 -314 2 0 15 17 27 38 105 172 237 352 259 352 4 0 -3 -39 -16
-87 -179 -642 -244 -1229 -215 -1938 11 -258 41 -647 62 -785 5 -36 14 -99 19
-140 16 -113 67 -403 106 -600 8 -41 26 -119 40 -172 14 -53 24 -105 22 -115
-3 -19 -114 198 -212 417 -31 69 -66 139 -76 155 l-20 30 0 -296 0 -295 68
-105 c113 -172 229 -298 351 -380 64 -44 227 -124 300 -149 36 -12 114 -33
175 -47 130 -29 314 -35 462 -14 50 8 97 12 104 9 19 -6 -282 -123 -407 -158
-163 -46 -305 -64 -458 -57 -140 7 -176 14 -359 72 -92 29 -127 36 -158 31
-76 -12 -78 -15 -78 -124 l0 -97 43 -26 c76 -48 103 -58 218 -83 203 -44 260
-51 424 -50 322 2 609 85 1027 296 148 74 162 79 250 89 98 10 132 24 358 144
81 43 150 59 150 35 0 -20 -48 -105 -96 -170 -132 -181 -370 -374 -601 -489
-241 -120 -476 -181 -804 -210 -128 -11 -181 -34 -255 -113 -74 -78 -97 -144
-95 -278 0 -60 7 -130 16 -163 55 -211 304 -437 615 -560 127 -50 353 -97 470
-97 57 0 222 23 252 35 13 5 23 -7 47 -57 67 -141 187 -236 371 -292 l85 -27
450 3 450 3 118 38 c222 71 402 159 557 273 104 76 282 259 339 349 28 44 55
85 60 91 11 14 395 24 886 24 l361 0 60 -88 c225 -333 663 -595 1091 -652 116
-16 379 -7 482 15 184 41 364 115 512 211 94 61 233 199 289 286 l43 67 56
-28 c299 -150 843 -78 1089 144 63 57 112 139 112 184 -1 35 -32 101 -61 128
-13 12 -105 64 -205 116 -206 107 -221 117 -286 170 -72 58 -106 112 -234 367
-170 340 -232 438 -363 573 -36 37 -63 67 -60 67 4 0 27 -9 53 -20 25 -12 139
-43 253 -70 115 -27 246 -58 293 -69 47 -11 122 -27 167 -35 65 -11 117 -32
250 -96 92 -45 192 -94 220 -108 29 -14 59 -33 68 -42 14 -15 8 -16 -68 -17
-45 -1 -134 -2 -197 -3 -127 -3 -283 23 -366 59 -26 12 -52 21 -58 21 -19 0
-130 77 -195 135 -67 60 -81 66 -81 34 0 -29 104 -129 182 -174 69 -41 195
-85 303 -106 80 -16 480 -20 530 -5 l30 9 -30 14 -30 14 30 -6 c99 -21 159
-17 298 19 149 38 249 77 321 122 l45 29 1 182 0 183 -113 -98 c-63 -53 -137
-110 -166 -125 -133 -73 -289 -87 -426 -39 -90 31 -199 96 -192 115 2 7 35 15
80 19 139 13 270 39 395 80 127 41 299 117 365 162 21 14 42 26 47 26 6 0 10
86 10 218 0 215 0 217 -19 187 -17 -28 -97 -107 -166 -165 -105 -87 -270 -174
-410 -216 -108 -32 -214 -56 -228 -51 -5 1 2 16 15 32 96 118 238 513 307 855
89 444 125 846 126 1405 0 395 -6 505 -51 866 -42 343 -63 459 -130 723 -63
243 -167 480 -309 701 -98 152 -120 194 -107 207 17 17 176 22 259 9 101 -16
160 -33 247 -73 189 -86 279 -179 415 -433 18 -33 37 -64 42 -70 5 -5 9 89 9
240 l-1 250 -77 69 c-151 134 -339 226 -560 271 -62 12 -115 25 -118 28 -4 3
2 30 12 59 16 46 19 83 18 278 -1 231 -12 334 -62 575 -71 338 -235 765 -393
1022 -23 38 -54 89 -70 115 -97 163 -237 350 -377 506 l-74 82 -177 0 -176 0
91 -92 c204 -208 333 -376 488 -631 186 -307 325 -643 405 -977 69 -291 80
-381 56 -468 -10 -34 -23 -67 -31 -72 -9 -8 -80 -9 -234 -4 -266 8 -247 -1
-340 171 -252 464 -543 835 -890 1133 -562 482 -1190 792 -1850 912 -121 22
-145 23 -690 23 l-565 0 -120 -27 c-66 -15 -163 -36 -215 -47 -604 -133 -1184
-448 -1625 -885 -276 -274 -477 -557 -660 -931 -74 -153 -135 -251 -208 -340
-23 -28 -30 -30 -94 -31 -37 -1 -122 -5 -188 -9 -153 -10 -177 -1 -200 77 -45
151 0 415 140 835 162 483 398 878 756 1266 l91 97 -165 0 -164 0 -89 -93z
m3676 -162 c570 -67 1152 -279 1613 -586 465 -311 866 -729 1110 -1159 78
-137 182 -371 217 -489 25 -82 48 -224 42 -257 -5 -30 -30 -40 -162 -68 -184
-38 -221 -56 -315 -150 -73 -72 -89 -95 -143 -206 -87 -177 -126 -307 -178
-598 -9 -50 -20 -95 -25 -98 -6 -3 -21 1 -34 10 -32 21 -288 130 -405 173
-311 113 -759 239 -1045 293 -437 83 -625 101 -1115 107 -430 5 -548 0 -846
-38 -568 -71 -1208 -279 -1583 -514 -57 -36 -107 -65 -111 -65 -4 0 -11 17
-15 38 -24 135 -126 458 -183 583 -83 184 -243 382 -388 480 -39 26 -74 54
-77 61 -5 13 19 80 70 203 14 33 50 121 80 195 284 706 734 1232 1389 1623
420 251 966 428 1449 470 122 11 541 6 655 -8z m-4078 -2636 c256 -52 479
-221 607 -461 44 -81 99 -235 124 -343 57 -249 114 -543 147 -770 63 -417 58
-1157 -11 -1695 -14 -112 -67 -419 -84 -489 -32 -134 -66 -252 -95 -331 -17
-47 -39 -107 -49 -135 -26 -71 -120 -260 -164 -327 -20 -31 -53 -69 -72 -83
-75 -58 -219 -101 -355 -105 -85 -3 -82 -7 -46 68 36 74 50 105 90 202 15 36
32 74 37 85 25 55 94 258 125 367 42 150 75 287 93 388 34 184 59 412 76 690
22 348 21 450 -16 930 -25 333 -111 861 -198 1215 -25 103 -101 327 -131 385
-34 67 -108 179 -152 229 -76 88 -82 141 -17 173 18 10 35 18 36 18 1 0 26 -5
55 -11z m-491 -123 c299 -144 526 -765 614 -1681 45 -472 38 -1171 -16 -1595
-66 -520 -179 -884 -368 -1194 -57 -94 -141 -196 -161 -196 -43 0 -215 142
-313 258 -103 123 -219 414 -277 698 -129 623 -153 1928 -49 2609 75 495 180
842 308 1021 63 87 93 106 166 102 33 -2 76 -12 96 -22z m7908 -18 c25 -12 82
-58 126 -102 194 -195 347 -570 454 -1111 58 -292 85 -524 106 -903 40 -715
-2 -1279 -136 -1817 -78 -314 -216 -629 -307 -705 -57 -47 -150 -90 -195 -90
-53 0 -122 36 -164 85 -46 53 -240 432 -305 595 -116 290 -148 590 -163 1520
-18 1111 53 1735 250 2179 48 108 141 269 188 326 45 53 74 58 146 23z m-605
-168 c30 -11 33 -32 10 -86 -143 -338 -218 -739 -254 -1349 -19 -324 -9 -1015
20 -1465 13 -193 15 -279 6 -287 -21 -22 -82 112 -121 266 -115 457 -123 1127
-20 1782 15 94 25 199 25 262 0 113 13 177 85 432 56 202 96 305 152 398 36
59 49 66 97 47z m-2813 -365 c222 -23 294 -32 429 -55 656 -110 1118 -249
1549 -464 153 -77 210 -111 218 -133 3 -9 -3 -113 -15 -232 -12 -119 -27 -290
-34 -381 -17 -228 -17 -856 0 -990 20 -163 59 -374 92 -500 17 -63 37 -167 45
-230 8 -63 22 -138 30 -167 31 -106 152 -227 270 -272 33 -13 67 -26 75 -30
16 -8 294 -548 306 -595 l7 -29 -79 6 c-48 3 -133 22 -219 47 -613 182 -800
219 -1155 227 -242 6 -372 -6 -485 -46 -111 -39 -143 -80 -152 -195 -10 -127
32 -283 149 -561 189 -449 438 -737 743 -860 151 -61 228 -76 395 -79 179 -3
228 -15 270 -63 38 -43 40 -102 7 -229 -29 -107 -67 -185 -126 -256 -136 -162
-311 -251 -546 -278 -441 -50 -865 95 -1184 403 -150 145 -244 310 -401 707
-159 398 -271 599 -425 755 -82 84 -114 109 -179 141 -70 34 -90 39 -164 43
-100 4 -167 -12 -189 -46 -30 -45 -66 -169 -198 -673 -83 -315 -163 -522 -276
-710 -241 -406 -581 -631 -1089 -722 -46 -8 -148 -13 -265 -12 -160 0 -204 3
-277 22 -197 49 -294 130 -347 289 -46 136 -15 274 74 336 22 15 111 52 197
82 286 99 398 165 573 339 147 147 244 288 322 466 111 254 162 475 142 616
-13 96 -23 121 -62 162 -66 69 -159 26 -190 -89 -8 -30 -29 -130 -47 -224 -40
-205 -75 -318 -142 -449 -108 -210 -243 -352 -453 -478 -109 -65 -161 -87
-309 -128 -161 -44 -210 -68 -290 -141 -95 -86 -150 -235 -127 -339 16 -70 8
-74 -132 -66 -302 17 -623 128 -771 267 -177 165 -178 393 -3 428 29 6 111 20
182 31 260 41 443 97 651 199 227 111 379 220 588 421 149 144 363 413 430
539 41 79 86 211 86 255 0 41 -32 91 -71 112 -53 27 -110 15 -265 -59 -76 -36
-209 -93 -294 -127 -85 -33 -166 -65 -179 -71 -13 -5 -26 -7 -29 -5 -5 6 30
77 170 346 79 153 111 224 183 410 90 232 107 267 168 347 68 91 71 113 30
230 -32 93 -33 127 -19 818 9 461 4 630 -30 1060 -18 234 -19 249 -10 263 18
29 135 99 296 178 532 261 1153 421 1760 454 204 11 611 3 791 -15z m1629
-4090 c183 -13 507 -96 635 -163 174 -92 443 -407 684 -802 136 -223 184 -291
265 -378 71 -75 128 -115 188 -133 18 -5 85 -14 148 -19 160 -14 170 -17 185
-53 16 -39 6 -69 -38 -116 -104 -109 -427 -145 -776 -86 -88 15 -161 50 -185
88 -8 12 -16 60 -19 107 -11 166 -52 230 -192 295 -158 73 -181 104 -250 340
-14 50 -46 153 -70 230 -24 77 -49 168 -55 202 -29 147 -158 205 -294 133 -57
-29 -122 -77 -183 -134 -28 -26 -33 -37 -33 -77 0 -55 19 -104 57 -149 36 -43
79 -60 151 -60 47 0 73 7 140 40 l82 39 14 -22 c37 -56 134 -421 122 -453 -15
-38 -228 -2 -340 57 -126 65 -291 222 -400 379 -123 175 -246 488 -246 625 0
73 6 83 54 96 42 12 214 28 251 23 11 -2 58 -5 105 -9z m-2122 -601 c116 -58
283 -291 390 -544 53 -126 152 -388 152 -403 0 -8 -10 -17 -22 -21 -30 -8
-772 -8 -820 0 -20 4 -39 12 -42 19 -2 7 2 44 9 81 7 38 27 139 44 224 50 258
131 551 178 643 17 34 43 35 111 1z"/>
<path d="M3903 5575 c-345 -79 -564 -312 -613 -650 -35 -245 31 -497 178 -687
151 -195 345 -300 597 -324 145 -13 345 39 495 129 112 67 260 215 313 312
134 245 140 552 14 785 -109 202 -291 344 -532 415 -75 22 -114 27 -240 31
-106 2 -168 -1 -212 -11z m8 -326 c127 -55 196 -232 138 -359 -58 -129 -200
-188 -345 -145 -147 43 -214 213 -146 368 26 58 109 142 153 156 48 15 141 5
200 -20z"/>
<path d="M3696 5084 c-11 -30 -6 -53 20 -83 29 -35 59 -39 92 -12 30 26 30 74
0 95 -30 21 -104 21 -112 0z"/>
<path d="M6154 5579 c-119 -20 -277 -91 -375 -169 -124 -98 -216 -227 -268
-375 -36 -104 -42 -313 -12 -440 66 -280 279 -530 531 -623 261 -96 558 -54
781 112 187 139 306 323 354 549 26 121 12 297 -34 418 -117 309 -471 542
-820 538 -58 -1 -129 -5 -157 -10z m60 -313 c87 -51 140 -150 140 -261 -1
-111 -53 -188 -151 -225 -180 -67 -352 50 -353 240 0 117 53 214 142 259 60
31 157 25 222 -13z"/>
<path d="M6016 5065 c-9 -9 -16 -23 -16 -32 0 -25 30 -81 47 -87 20 -8 56 23
48 41 -2 8 0 11 5 8 17 -11 11 32 -7 53 -25 29 -58 36 -77 17z m50 -53 c1 -7
0 -8 -3 -2 -2 5 -9 8 -14 4 -5 -3 -9 0 -9 6 0 15 23 7 26 -8z"/>
<path d="M10020 505 c24 -24 46 -42 49 -40 6 7 -70 85 -83 85 -6 0 10 -20 34
-45z"/>
</g>
</svg>
